<?xml version="1.0" encoding="utf-8"?>
<!-- Generator: Adobe Illustrator 24.3.0, SVG Export Plug-In . SVG Version: 6.00 Build 0)  -->
<svg version="1.1" id="Layer_1" xmlns="http://www.w3.org/2000/svg" xmlns:xlink="http://www.w3.org/1999/xlink" x="0px" y="0px"
	 viewBox="0 0 841.9 595.3" style="enable-background:new 0 0 841.9 595.3;" xml:space="preserve">
<style type="text/css">
	.st0{fill:none;stroke:url(#SVGID_1_);stroke-width:6;stroke-miterlimit:10;}
	.st1{fill:url(#SVGID_2_);}
</style>
<linearGradient id="SVGID_1_" gradientUnits="userSpaceOnUse" x1="184.532" y1="518.3095" x2="652.068" y2="76.9905">
	<stop  offset="0" style="stop-color:#CBE54E"/>
	<stop  offset="8.960266e-02" style="stop-color:#C2E152"/>
	<stop  offset="0.2345" style="stop-color:#AAD65F"/>
	<stop  offset="0.4166" style="stop-color:#83C373"/>
	<stop  offset="0.6268" style="stop-color:#4EAA8E"/>
	<stop  offset="0.7264" style="stop-color:#329D9C"/>
</linearGradient>
<path class="st0" d="M635.1,526.5H201.5c-6.6,0-12-5.4-12-12V80.8c0-6.6,5.4-12,12-12h433.6c6.6,0,12,5.4,12,12v433.6
	C647.1,521.1,641.7,526.5,635.1,526.5z"/>
<linearGradient id="SVGID_2_" gradientUnits="userSpaceOnUse" x1="218.3407" y1="514.7934" x2="558.3406" y2="155.7934">
	<stop  offset="0" style="stop-color:#CBE54E"/>
	<stop  offset="8.960266e-02" style="stop-color:#C2E152"/>
	<stop  offset="0.2345" style="stop-color:#AAD65F"/>
	<stop  offset="0.4166" style="stop-color:#83C373"/>
	<stop  offset="0.6268" style="stop-color:#4EAA8E"/>
	<stop  offset="0.7264" style="stop-color:#329D9C"/>
</linearGradient>
<path class="st1" d="M543.5,283.4L543.5,283.4C533,169.5,430.8,136,430.8,136c13.9,88.8-51.5,120.7-65,115.8
	c-13.5-4.9-19.9-53.2-19.9-53.2l-3.6,2.6c-5.4,3.9-10.5,8.3-15.2,13c-23.1,23.1-37.4,55.1-37.4,90.4c0,29.6,10.1,56.8,27,78.5
	C360,371,398,344.8,424.9,308.3c28.5-38.8,40.7-85.1,33.4-127.1c-0.5-2.7,1.3-5.3,4.1-5.8c2.7-0.5,5.3,1.3,5.8,4.1
	c7.8,44.7-5,93.8-35.2,134.8c-29.5,40.1-71.8,68.3-120,80.1l-19.5,17.2c-4.7,4.1-5.2,11.4-1,16c4.1,4.7,11.4,5.2,16,1l28.3-24.9
	c18.2,14.8,40.5,24.7,65,27.7h31.3c29-3.6,55.1-16.8,74.7-36.4c23.1-23.1,37.4-55.1,37.4-90.4C545.3,297.3,544.7,290.3,543.5,283.4z
	"/>
</svg>
